<svg width="51" height="66" viewBox="0 0 51 66" fill="none" xmlns="http://www.w3.org/2000/svg">
<path d="M38.25 44C45.2916 44 51 39.0751 51 33C51 26.9249 45.2916 22 38.25 22C31.2084 22 25.5 26.9249 25.5 33C25.5 39.0751 31.2084 44 38.25 44Z" fill="#19BCFE"/>
<path fill-rule="evenodd" clip-rule="evenodd" d="M12.75 66C19.7916 66 25.5 61.0751 25.5 55C25.5 53.3416 25.5 49.6749 25.5 44C19.7722 44 15.5222 44 12.75 44C5.70837 44 0 48.9249 0 55C0 61.0751 5.70837 66 12.75 66Z" fill="#09CF83"/>
<path fill-rule="evenodd" clip-rule="evenodd" d="M12.75 44C15.0972 44 19.3472 44 25.5 44V22C19.3472 22 15.0972 22 12.75 22C5.70837 22 0 26.9249 0 33C0 39.0751 5.70837 44 12.75 44Z" fill="#A259FF"/>
<path fill-rule="evenodd" clip-rule="evenodd" d="M12.75 22C15.0972 22 19.3472 22 25.5 22V0C19.3472 0 15.0972 0 12.75 0C5.70837 0 0 4.92487 0 11C0 17.0751 5.70837 22 12.75 22Z" fill="#F24E1E"/>
<path fill-rule="evenodd" clip-rule="evenodd" d="M38.25 22H25.5V0H38.25C45.2916 0 51 4.92487 51 11C51 17.0751 45.2916 22 38.25 22Z" fill="#FF7262"/>
</svg>
