<svg width="50" height="46" viewBox="0 0 50 46" fill="none" xmlns="http://www.w3.org/2000/svg">
<path d="M26.0723 19.5823C26.8603 18.8106 28.1986 19.4594 28.0498 20.5411L26.4485 32.177C26.3785 32.686 25.9696 33.0864 25.4499 33.155L13.5687 34.7232C12.4643 34.8689 11.8017 33.5582 12.5897 32.7865" fill="white"/>
<path d="M13.5112 36.1076C12.5735 36.1076 11.7301 35.5917 11.3021 34.7304C10.8221 33.7639 11.0062 32.6468 11.7715 31.8842C12.2912 31.3663 13.1341 31.3663 13.654 31.8842C14.0655 32.2943 14.1513 32.9063 13.911 33.4004L25.1095 31.8966L26.6185 20.737C26.1227 20.9764 25.5086 20.8912 25.0969 20.4808C24.5771 19.9629 24.5771 19.1229 25.0969 18.605C25.8622 17.8425 26.9835 17.659 27.9531 18.1374C28.9229 18.6158 29.4561 19.6157 29.3116 20.6844L27.7294 32.3862C27.5806 33.4866 26.7055 34.3588 25.6011 34.5072L13.858 36.0843C13.7415 36.0998 13.6256 36.1076 13.5112 36.1076Z" fill="#F3F80B"/>
<path d="M43.3675 33.4102C42.8186 33.4102 42.3047 33.0693 42.1119 32.524C41.8678 31.833 42.2319 31.0757 42.9253 30.8323C45.5646 29.9064 47.338 27.4194 47.338 24.6437C47.338 21.496 45.0814 18.7871 41.9728 18.2022C41.6107 18.134 41.2933 17.9194 41.0957 17.6094C40.8983 17.2995 40.8387 16.9217 40.9311 16.5662C41.1669 15.6581 41.2866 14.7176 41.2866 13.7707C41.2866 7.64048 36.2819 2.65322 30.1304 2.65322C26.291 2.65322 22.7679 4.58446 20.7059 7.81944C20.3503 8.37716 19.6369 8.58911 19.033 8.31643C18.0817 7.88698 17.0686 7.66918 16.0218 7.66918C11.9919 7.66918 8.71328 10.9364 8.71328 14.9523C8.71328 15.5113 8.77939 16.0748 8.90986 16.6269C8.99189 16.9745 8.92978 17.3403 8.73789 17.6417C8.546 17.9432 8.23994 18.1547 7.88936 18.2286C4.86055 18.866 2.66211 21.5642 2.66211 24.6437C2.66211 27.1732 4.15781 29.506 6.47256 30.5869C7.13818 30.8976 7.425 31.6875 7.11318 32.3508C6.80137 33.0141 6.00898 33.3001 5.34316 32.9892C2.09736 31.4735 0 28.1976 0 24.6436C0 20.7483 2.50273 17.2878 6.10586 15.9837C6.06963 15.6401 6.05146 15.2956 6.05146 14.9518C6.05146 9.47313 10.5243 5.01586 16.022 5.01586C17.0725 5.01586 18.0982 5.17673 19.0842 5.49505C21.6903 2.03498 25.7434 0 30.1305 0C37.75 0 43.9487 6.17733 43.9487 13.7703C43.9487 14.4994 43.8912 15.2259 43.7772 15.9419C47.4516 17.2083 50 20.6781 50 24.6435C50 28.5426 47.5122 32.0353 43.8095 33.3345C43.6634 33.3858 43.514 33.4102 43.3675 33.4102Z" fill="#F3F80B"/>
<path d="M23.0718 45.9998C22.3645 45.9998 21.6997 45.7254 21.1999 45.2271L11.5134 35.5745C10.4812 34.5458 10.4812 32.8723 11.5134 31.8437L25.0562 18.3478C25.5563 17.8496 26.221 17.5752 26.9281 17.5752C27.6353 17.5752 28.3002 17.8496 28.8 18.348L38.4865 28.0006C38.9864 28.4987 39.2618 29.1612 39.2618 29.8659C39.2618 30.5707 38.9864 31.233 38.4863 31.7313L37.1919 33.0212C36.6721 33.5391 35.8293 33.5393 35.3095 33.0212C34.7898 32.5031 34.7896 31.6633 35.3095 31.1454L36.5934 29.866L26.928 20.2343L13.406 33.709L23.0715 43.3408L31.5572 34.8844C32.0769 34.3665 32.9198 34.3665 33.4397 34.8844C33.9594 35.4023 33.9594 36.2423 33.4397 36.7604L24.9435 45.2271C24.4436 45.7254 23.7788 45.9998 23.0718 45.9998Z" fill="#F3F80B"/>
</svg>
