<svg width="69" height="62" viewBox="0 0 69 62" fill="none" xmlns="http://www.w3.org/2000/svg">
<path d="M69 0H0V62H69V0Z" fill="#FF0066"/>
<path d="M23.4792 19.9514C25.6618 19.9227 27.4083 18.3147 27.3871 16.3534C27.3659 14.3921 25.585 12.8149 23.4022 12.8243C21.2194 12.8337 19.4553 14.4263 19.4551 16.3876C19.4587 17.3409 19.8857 18.2533 20.6412 18.9225C21.3968 19.5916 22.4184 19.962 23.4792 19.9514Z" fill="white"/>
<path d="M15.1358 39.0301C14.9074 39.9074 14.7879 40.8049 14.7798 41.706C14.7798 44.8432 16.6732 46.9264 20.6972 46.9264C24.0341 46.9264 26.7416 45.1457 28.6874 42.2689L27.4979 46.5593H34.1219L37.9114 32.9193C38.858 29.4622 40.6907 27.6692 43.4727 27.6692C45.6614 27.6692 47.0221 28.8918 47.0221 30.913C47.0329 31.561 46.9333 32.2067 46.7268 32.8276L44.7755 39.0995C44.4963 39.9633 44.3569 40.8586 44.3615 41.7581C44.3615 44.7341 46.3128 46.9165 50.3948 46.9165C53.8862 46.9165 56.6683 44.8977 58.2056 40.0593L55.6029 39.1541C54.3002 42.3979 53.1769 42.9832 52.2909 42.9832C51.405 42.9832 50.9275 42.4525 50.9275 41.3885C50.9531 40.8302 51.0522 40.2767 51.2228 39.7393L53.1189 33.6261C53.5446 32.3694 53.7641 31.0636 53.7703 29.7499C53.7703 25.1768 50.6929 22.791 46.9641 22.791C43.4727 22.791 39.9234 25.6207 38.1487 28.5992L39.4487 23.2523H29.3333L27.9119 27.9643H32.648L29.7335 38.4398C27.4427 43.0129 23.2364 43.0873 22.7093 42.9807C21.8426 42.8046 21.2906 42.5095 21.2906 41.4927C21.3159 40.6695 21.455 39.8522 21.7046 39.0598L26.1427 23.2399H14.904L13.4854 27.9519H18.158L15.1358 39.0301Z" fill="white"/>
</svg>
