<svg width="28" height="40" viewBox="0 0 28 40" fill="none" xmlns="http://www.w3.org/2000/svg">
<path d="M14.0002 0C6.28041 0 0 5.25812 0 11.7213C0 13.4839 0.45602 15.1779 1.35503 16.7573C1.37313 16.7911 1.39213 16.8243 1.4124 16.8575L11.9903 34.0046C12.3786 34.634 13.154 35.0294 14 35.0294C14.8462 35.0294 15.6216 34.6341 16.0097 34.0046L26.5847 16.8622C26.603 16.8326 26.62 16.8028 26.6363 16.7726C27.5413 15.1887 28 13.4895 28 11.7213C28.0004 5.25812 21.72 0 14.0002 0ZM14.0002 17.8565C9.95952 17.8565 6.67219 15.1043 6.67219 11.7213C6.67219 8.33852 9.95952 5.58628 14.0002 5.58628C18.0408 5.58628 21.3282 8.33852 21.3282 11.7213C21.3282 15.1043 18.0408 17.8565 14.0002 17.8565Z" fill="#F3F80B"/>
<path d="M19.3928 37.7278H8.6072C7.85748 37.7278 7.25 38.2364 7.25 38.8641C7.25 39.4918 7.85748 40.0004 8.6072 40.0004H19.3928C20.1425 40.0004 20.75 39.4918 20.75 38.8641C20.75 38.2364 20.1423 37.7278 19.3928 37.7278Z" fill="#F3F80B"/>
</svg>
