<svg width="116" height="111" viewBox="0 0 116 111" fill="none" xmlns="http://www.w3.org/2000/svg">
<path d="M58 0C26.0188 0 0 24.8973 0 55.5C0 86.1027 26.0188 111 58 111C89.9812 111 116 86.1027 116 55.5C116 24.8973 89.9812 0 58 0ZM58 100.909C31.8336 100.909 10.5455 80.5386 10.5455 55.5C10.5455 30.4614 31.8336 10.0909 58 10.0909C84.1664 10.0909 105.455 30.4614 105.455 55.5C105.455 80.5386 84.1664 100.909 58 100.909Z" fill="currentColor"/>
<path d="M72.1682 69.0571C64.3554 76.5325 51.6446 76.5328 43.8322 69.0575C41.7734 67.0871 38.4347 67.0871 36.3755 69.0575C34.3163 71.0279 34.3163 74.2223 36.3755 76.1928C42.3382 81.8985 50.1675 84.7502 58.0004 84.7502C65.8307 84.7502 73.6639 81.8971 79.6252 76.1928C81.6844 74.2227 81.6844 71.0279 79.6252 69.0575C77.5657 67.0867 74.227 67.0871 72.1682 69.0571Z" fill="currentColor"/>
<path d="M40.4735 49.4925C41.7846 48.2413 42.5333 46.5056 42.5333 44.7364C42.5333 42.9671 41.7846 41.2315 40.4735 39.9802C39.1658 38.7289 37.352 38.0091 35.503 38.0091C33.6502 38.0091 31.8402 38.7289 30.5323 39.9802C29.2215 41.2315 28.4727 42.9671 28.4727 44.7364C28.4727 46.5056 29.2215 48.2413 30.5323 49.4925C31.8402 50.7472 33.6541 51.4636 35.503 51.4636C37.352 51.4636 39.1658 50.7472 40.4735 49.4925Z" fill="currentColor"/>
<path d="M80.497 38.0091C78.648 38.0091 76.8342 38.7289 75.5262 39.9802C74.2189 41.2315 73.4667 42.9637 73.4667 44.7364C73.4667 46.509 74.2189 48.2413 75.5262 49.4925C76.8342 50.7472 78.648 51.4636 80.497 51.4636C82.3459 51.4636 84.1598 50.7472 85.4674 49.4925C86.775 48.2413 87.5273 46.509 87.5273 44.7364C87.5273 42.9671 86.7747 41.2315 85.4674 39.9802C84.1598 38.7289 82.3459 38.0091 80.497 38.0091Z" fill="currentColor"/>
</svg>
