<svg width="75" height="68" viewBox="0 0 75 68" fill="none" xmlns="http://www.w3.org/2000/svg">
<path d="M61.719 68H13.281C5.937 68 0 62.4791 0 55.6498V12.3502C0 5.5209 5.937 0 13.281 0H61.719C69.063 0 75 5.5209 75 12.3502V55.6498C75 62.4791 69.063 68 61.719 68Z" fill="#FF26BE"/>
<path d="M60.6405 65H14.3895C8.11489 65 3 60.2772 3 54.4836V13.5164C3 7.7228 8.11489 3 14.3895 3H60.6103C66.9181 3 71.9999 7.7228 71.9999 13.5164V54.4557C72.03 60.2772 66.9151 65 60.6405 65Z" fill="#2E001F"/>
<path d="M29.7181 31.3822L38.5048 47.1182C38.6614 47.3512 38.568 47.5871 38.315 47.5871H32.8538C32.5074 47.5871 32.3508 47.5001 32.1942 47.208C30.185 43.347 28.1457 39.486 26.0432 35.333H25.9799C24.0973 39.253 22.0249 43.3779 20.0187 47.2389C19.8621 47.472 19.7055 47.5618 19.4524 47.5618H14.2805C13.9672 47.5618 13.934 47.3288 14.0937 47.1519L22.6906 31.882L14.3768 16.438C14.1871 16.205 14.3768 16.0281 14.5636 16.0281H19.9615C20.2748 16.0281 20.4013 16.087 20.5248 16.351C22.5008 20.212 24.51 24.1909 26.3926 28.08H26.4559C28.2752 24.219 30.2844 20.212 32.2303 16.3791C32.3869 16.146 32.4803 16 32.7966 16H37.8481C38.0981 16 38.1945 16.1769 38.0379 16.41L29.7181 31.3822ZM40.044 36.1502C40.044 29.3352 44.9088 24.0112 52.6261 24.0112C53.2858 24.0112 53.6291 24.0112 54.2587 24.0702V16.3201C54.2587 16.1432 54.4153 16.0281 54.572 16.0281H59.5301C59.7801 16.0281 59.8434 16.1151 59.8434 16.2611V43.114C59.8434 43.903 59.8434 44.897 60 45.9809C60 46.1578 59.9367 46.214 59.75 46.3038C57.1143 47.4748 54.3521 47.9999 51.7164 47.9999C44.9057 48.0252 40.041 44.108 40.044 36.1502ZM54.2557 28.664C53.8159 28.4871 53.1894 28.372 52.4363 28.372C48.4813 28.372 45.7221 31.2081 45.7221 35.9199C45.7221 41.3028 48.5475 43.4678 52.0929 43.4678C52.846 43.4678 53.6623 43.3807 54.2587 43.1449V28.664H54.2557Z" fill="#FFD9F2"/>
</svg>
