<svg width="50" height="44" viewBox="0 0 50 44" fill="none" xmlns="http://www.w3.org/2000/svg">
	<path d="M37.4306 0H12.5297C5.63045 0 0 4.95873 0 11.0349V33C0 39.0413 5.63045 44 12.5297 44H37.4703C44.3695 44 50 39.0413 50 32.9651V11.0349C49.9604 4.95873 44.3299 0 37.4306 0ZM16.6535 35.619H9.51626V17.4603H16.6535V35.619ZM13.0452 14.6667C11.023 14.6667 9.3973 13.2349 9.3973 11.454C9.3973 9.67302 11.023 8.24127 13.0452 8.24127C15.0674 8.24127 16.6931 9.67302 16.6931 11.454C16.6535 13.2349 15.0278 14.6667 13.0452 14.6667ZM40.4837 35.619H40.4441H34.4964V26.819C34.4964 24.6889 34.1792 21.9651 30.8882 21.9651C27.5178 21.9651 26.9627 24.2698 26.9627 26.6794V35.619H21.0151V17.4603H26.5662V19.9048H26.7248C27.5971 18.5079 29.6194 17.4254 32.7914 17.4254C39.3339 17.4254 40.4837 20.7429 40.4837 25.6667V35.619Z" fill="currentColor"/>
</svg>
