<svg width="32" height="33" viewBox="0 0 32 33" fill="none" xmlns="http://www.w3.org/2000/svg">
<path d="M16 0C7.1776 0 0 7.4019 0 16.5C0 25.5981 7.1776 33 16 33C24.8224 33 32 25.5981 32 16.5C32 7.4019 24.8224 0 16 0ZM16 28.5C9.58371 28.5 4.36364 23.1168 4.36364 16.5C4.36364 9.8832 9.58371 4.5 16 4.5C22.4163 4.5 27.6364 9.8832 27.6364 16.5C27.6364 23.1168 22.4163 28.5 16 28.5ZM20.3226 19.2396L22.6816 21.4993L21.4929 22.5722C20.0041 23.9156 18.1021 24.6557 16.1377 24.6557C11.7241 24.6557 8.13324 21.0289 8.13324 16.5714C8.13324 12.1241 11.7241 8.50575 16.1377 8.50575C18.1037 8.50575 19.9993 9.23895 21.4748 10.5704L22.6199 11.6039L20.3593 13.9365L19.3555 13.022C18.4919 12.2355 17.3494 11.8023 16.1377 11.8023C13.4867 11.8023 11.3299 13.9418 11.3299 16.5713C11.3299 19.2113 13.4867 21.359 16.1377 21.359C17.336 21.359 18.4787 20.919 19.3555 20.1203L20.3226 19.2396Z" fill="white"/>
</svg>
