<svg width="51" height="42" viewBox="0 0 51 42" fill="none" xmlns="http://www.w3.org/2000/svg">
<path fill-rule="evenodd" clip-rule="evenodd" d="M5.22949 11.6181H45.3928V30.8481H5.22949V11.6181ZM9.19312 25.791V16.209H13.8831C14.7491 16.209 15.3675 16.3893 15.7383 16.7499C15.9327 16.9516 16.0836 17.1957 16.1803 17.4652C16.277 17.7347 16.3174 18.0233 16.2986 18.311C16.3292 18.8658 16.2051 19.4179 15.9417 19.8984C15.7225 20.2567 15.385 20.5154 14.9954 20.624V20.7164C16.1602 20.9304 16.7441 21.7732 16.7468 23.2449C16.7767 23.9157 16.5695 24.5742 16.1658 25.0918C15.9359 25.3388 15.6577 25.5293 15.3508 25.6501C15.0439 25.7709 14.7157 25.819 14.3894 25.791H9.19312ZM13.2148 21.9872H12.0859V23.5483H13.2024C13.6174 23.5483 13.8083 23.2889 13.8083 22.77C13.8083 22.2511 13.6091 21.9872 13.2148 21.9872ZM12.999 18.3242H12.0859V19.7489H12.9866C13.3518 19.7489 13.5344 19.5115 13.5344 19.0365C13.5344 18.5616 13.356 18.3242 12.999 18.3242ZM23.8689 25.7998H18.0833V16.209H20.9885V23.3372H23.8938V25.791L23.8689 25.7998ZM24.5579 21.0154C24.5579 19.2564 24.8664 17.9826 25.4834 17.194C26.0977 16.3893 27.2141 15.9891 28.8245 15.9891C30.4348 15.9891 31.5471 16.3893 32.1448 17.194C32.7424 17.9987 33.0703 19.2696 33.0703 21.0154C33.0824 21.7537 33.017 22.4911 32.8752 23.2141C32.7558 23.7743 32.5268 24.3016 32.2029 24.762C31.8648 25.2149 31.4066 25.5503 30.8872 25.7251C30.2161 25.9475 29.515 26.0514 28.812 26.0329C28.109 26.0518 27.4079 25.9478 26.7368 25.7251C26.2164 25.5526 25.7576 25.2167 25.4211 24.762C25.0936 24.3039 24.8642 23.7757 24.7488 23.2141C24.605 22.4915 24.5396 21.7538 24.5537 21.0154H24.5579ZM27.6665 19.4235V23.4076H28.866C29.1603 23.4267 29.455 23.3771 29.7292 23.2625C29.9077 23.1657 29.9949 22.9415 29.9949 22.5941V18.6012H28.7788C28.4955 18.5853 28.2122 18.6348 27.9487 18.7463C27.7703 18.8431 27.6831 19.0673 27.6831 19.4147L27.6665 19.4235ZM39.0552 22.9679V22.5545H38.3206V20.2282H41.8069V25.3293C40.6696 25.7879 39.4627 26.0219 38.2458 26.0197C36.5857 26.0197 35.4526 25.5961 34.8467 24.7488C34.5221 24.2899 34.2955 23.7618 34.1826 23.2009C34.0465 22.4772 33.9839 21.7401 33.9958 21.0022C33.9814 20.2638 34.0469 19.5261 34.1909 18.8035C34.309 18.2398 34.5491 17.7129 34.8923 17.2644C35.5287 16.4054 36.7572 15.9759 38.5779 15.9759C39.0696 15.9843 39.5603 16.0254 40.0471 16.099C40.4954 16.1489 40.9386 16.2416 41.3711 16.3761L40.9353 18.7199C40.2366 18.5858 39.5286 18.5138 38.8186 18.5044C38.3696 18.4811 37.92 18.5331 37.4863 18.6584C37.367 18.7011 37.2645 18.7849 37.1953 18.8965C37.1261 19.0081 37.0942 19.141 37.1045 19.274V23.6143H38.0591C38.3169 23.6289 38.5749 23.5901 38.8186 23.4999C38.9763 23.4208 39.0552 23.2449 39.0552 22.9679ZM3.45312 0H47.5469C48.462 0.00232247 49.3391 0.388535 49.9862 1.07417C50.6333 1.7598 50.9978 2.68905 51 3.65867V38.3413C50.9967 39.3106 50.6319 40.2392 49.985 40.9246C49.3381 41.6099 48.4617 41.9965 47.5469 42H3.45312C2.53797 41.9977 1.66093 41.6115 1.01382 40.9258C0.366706 40.2402 0.00219199 39.311 0 38.3413V3.65867C0.00219199 2.68905 0.366706 1.7598 1.01382 1.07417C1.66093 0.388535 2.53797 0.00232247 3.45312 0ZM48.9746 8.83887H2.19556V38.6975C2.19501 38.8305 2.21932 38.9623 2.2671 39.0853C2.31488 39.2082 2.38517 39.32 2.47392 39.414C2.56268 39.508 2.66813 39.5825 2.78419 39.6331C2.90026 39.6838 3.02463 39.7095 3.15015 39.7089H47.9744C48.0999 39.7095 48.2243 39.6838 48.3403 39.6331C48.4564 39.5825 48.5618 39.508 48.6506 39.414C48.7393 39.32 48.8096 39.2082 48.8574 39.0853C48.9052 38.9623 48.9295 38.8305 48.929 38.6975V8.83887H48.9746ZM44.2598 3.17496C44.5971 3.17496 44.9269 3.28095 45.2075 3.47955C45.488 3.67814 45.7066 3.96041 45.8357 4.29066C45.9648 4.62091 45.9986 4.98431 45.9328 5.3349C45.867 5.68549 45.7045 6.00753 45.466 6.26029C45.2274 6.51306 44.9234 6.68519 44.5926 6.75493C44.2617 6.82467 43.9187 6.78887 43.607 6.65208C43.2953 6.51529 43.0289 6.28363 42.8414 5.98642C42.654 5.6892 42.554 5.33977 42.554 4.98231C42.554 4.50297 42.7337 4.04326 43.0536 3.70432C43.3735 3.36537 43.8074 3.17496 44.2598 3.17496ZM32.7051 3.17496C33.0425 3.17496 33.3723 3.28095 33.6528 3.47955C33.9333 3.67814 34.1519 3.96041 34.281 4.29066C34.4101 4.62091 34.4439 4.98431 34.3781 5.3349C34.3123 5.68549 34.1498 6.00753 33.9113 6.26029C33.6727 6.51306 33.3688 6.68519 33.0379 6.75493C32.707 6.82467 32.364 6.78887 32.0523 6.65208C31.7406 6.51529 31.4742 6.28363 31.2867 5.98642C31.0993 5.6892 30.9993 5.33977 30.9993 4.98231C30.9993 4.50297 31.179 4.04326 31.4989 3.70432C31.8188 3.36537 32.2527 3.17496 32.7051 3.17496ZM38.4824 3.17496C38.8198 3.17496 39.1496 3.28095 39.4301 3.47955C39.7106 3.67814 39.9293 3.96041 40.0584 4.29066C40.1875 4.62091 40.2213 4.98431 40.1555 5.3349C40.0896 5.68549 39.9272 6.00753 39.6886 6.26029C39.4501 6.51306 39.1461 6.68519 38.8152 6.75493C38.4843 6.82467 38.1413 6.78887 37.8296 6.65208C37.5179 6.51529 37.2515 6.28363 37.0641 5.98642C36.8767 5.6892 36.7766 5.33977 36.7766 4.98231C36.7766 4.50297 36.9563 4.04326 37.2762 3.70432C37.5961 3.36537 38.03 3.17496 38.4824 3.17496ZM27.7537 37.264C27.3874 37.2346 27.0451 37.0597 26.7953 36.7743C26.5455 36.4889 26.4068 36.1141 26.4068 35.7248C26.4068 35.3356 26.5455 34.9608 26.7953 34.6754C27.0451 34.39 27.3874 34.2151 27.7537 34.1857H44.21C44.5763 34.2151 44.9186 34.39 45.1683 34.6754C45.4181 34.9608 45.5569 35.3356 45.5569 35.7248C45.5569 36.1141 45.4181 36.4889 45.1683 36.7743C44.9186 37.0597 44.5763 37.2346 44.21 37.264H27.7537ZM6.22559 37.264C5.8671 37.2233 5.53546 37.0436 5.29447 36.7595C5.05348 36.4754 4.92016 36.1068 4.92016 35.7248C4.92016 35.3428 5.05348 34.9743 5.29447 34.6902C5.53546 34.4061 5.8671 34.2264 6.22559 34.1857H21.4658C21.8243 34.2264 22.1559 34.4061 22.3969 34.6902C22.6379 34.9743 22.7712 35.3428 22.7712 35.7248C22.7712 36.1068 22.6379 36.4754 22.3969 36.7595C22.1559 37.0436 21.8243 37.2233 21.4658 37.264H6.22559Z" fill="#F3F80B"/>
</svg>
